HIERARCHY
ROOT Hips
{
	OFFSET 0.00000 0.00000 0.00000
	CHANNELS 6 Xposition Yposition Zposition Zrotation Yrotation Xrotation 
	JOINT LHipJoint
	{
		OFFSET 0 0 0
		CHANNELS 3 Zrotation Yrotation Xrotation
		JOINT LeftHip
		{
			OFFSET 1.80322 -1.53100 0.99595
			CHANNELS 3 Zrotation Yrotation Xrotation
			JOINT LeftKnee
			{
				OFFSET 2.25177 -6.18669 0.00000
				CHANNELS 3 Zrotation Yrotation Xrotation
				JOINT LeftAnkle
				{
					OFFSET 2.26601 -6.22582 0.00000
					CHANNELS 3 Zrotation Yrotation Xrotation
					JOINT LeftToe
					{
						OFFSET 0.23701 -0.65119 2.15848
						CHANNELS 3 Zrotation Yrotation Xrotation
						End Site
						{
							OFFSET 0.00000 -0.00000 1.12949
						}
					}
				}
			}
		}
	}
	JOINT RHipJoint
	{
		OFFSET 0 0 0
		CHANNELS 3 Zrotation Yrotation Xrotation
		JOINT RightHip
		{
			OFFSET -1.93977 -1.53100 0.99595
			CHANNELS 3 Zrotation Yrotation Xrotation
			JOINT RightKnee
			{
				OFFSET -2.28036 -6.26523 0.00000
				CHANNELS 3 Zrotation Yrotation Xrotation
				JOINT RightAnkle
				{
					OFFSET -2.25490 -6.19528 0.00000
					CHANNELS 3 Zrotation Yrotation Xrotation
					JOINT RightToe
					{
						OFFSET -0.28375 -0.77960 2.23137
						CHANNELS 3 Zrotation Yrotation Xrotation
						End Site
						{
							OFFSET -0.00000 -0.00000 1.17899
						}
					}
				}
			}
		}
	}
	JOINT lowerback
	{
		OFFSET 0 0 0
		CHANNELS 3 Zrotation Yrotation Xrotation
		JOINT Chest
		{
			OFFSET -0.00088 2.12090 -0.02806
			CHANNELS 3 Zrotation Yrotation Xrotation
			JOINT Chest2
			{
				OFFSET -0.00286 2.09666 0.12974
				CHANNELS 3 Zrotation Yrotation Xrotation
				JOINT lowerneck
				{
					OFFSET 0 0 0
					CHANNELS 3 Zrotation Yrotation Xrotation
					JOINT Neck
					{
						OFFSET 0.07328 1.83526 0.07290
						CHANNELS 3 Zrotation Yrotation Xrotation
						JOINT Head
						{
							OFFSET -0.06683 1.74974 -0.49542
							CHANNELS 3 Zrotation Yrotation Xrotation
							End Site
							{
								OFFSET -0.03398 1.85163 -0.17573
							}
						}
					}
				}
				JOINT LeftCollar
				{
					OFFSET 0 0 0
					CHANNELS 3 Zrotation Yrotation Xrotation
					JOINT LeftShoulder
					{
						OFFSET 3.02113 1.18018 0.40602
CHANNELS 3 Zrotation Xrotation Yrotation
						JOINT LeftElbow
						{
OFFSET 0 -4.585380 -0.000000
CHANNELS 3 Zrotation Xrotation Yrotation
							JOINT LeftWrist
							{
OFFSET 0 -2.689350 -0.000000
CHANNELS 3 Zrotation Xrotation Yrotation
								JOINT lhand
								{
									OFFSET 0 0 0
CHANNELS 3 Zrotation Xrotation Yrotation
									JOINT LFingers
									{
OFFSET 0 -0.585060 -0.000000
CHANNELS 3 Zrotation Xrotation Yrotation
										End Site
										{
OFFSET 0 -0.471690 -0.000000
										}
									}
								}
								JOINT LThumb
								{
OFFSET 0 0.000000 0.000000
CHANNELS 3 Zrotation Xrotation Yrotation
									End Site
									{
OFFSET 0 -0.478890 0.478890
									}
								}
							}
						}
					}
				}
				JOINT RightCollar
				{
					OFFSET 0 0 0
					CHANNELS 3 Zrotation Yrotation Xrotation
					JOINT RightShoulder
					{
						OFFSET -2.95074 1.18843 0.31430
CHANNELS 3 Zrotation Xrotation Yrotation
						JOINT RightElbow
						{
OFFSET 0 -4.474500 -0.000000
CHANNELS 3 Zrotation Xrotation Yrotation
							JOINT RightWrist
							{
OFFSET 0 -2.938960 -0.000000
CHANNELS 3 Zrotation Xrotation Yrotation
								JOINT rhand
								{
									OFFSET 0 0 0
CHANNELS 3 Zrotation Xrotation Yrotation
									JOINT RFingers
									{
OFFSET 0 -0.405090 -0.000000
CHANNELS 3 Zrotation Xrotation Yrotation
										End Site
										{
OFFSET 0 -0.326600 -0.000000
										}
									}
								}
								JOINT RThumb
								{
OFFSET 0 0.000000 0.000000
CHANNELS 3 Zrotation Xrotation Yrotation
									End Site
									{
OFFSET 0 -0.331580 0.331580
									}
								}
							}
						}
					}
				}
			}
		}
	}
}
MOTION
Frames: 5
Frame Time: 0.008333333333333333
0.503600 15.758100 -4.910300 -0.186100 -5.343300 10.270700 0.000000 0.000000 0.000000 -20.592700 -14.578200 -8.696000 1.275800 7.158400 20.185400 0.759600 7.193000 -20.606800 0.035400 1.213900 3.337500 0.000000 0.000000 0.000000 21.223500 11.824200 -11.060700 -1.776400 -8.383900 23.886300 -0.886200 -9.190800 -23.369900 -0.070800 -1.716700 4.723200 0.954200 -0.733600 -8.337700 0.055600 -1.045700 -8.140900 -0.526300 -0.580000 -3.800100 7.076500 1.479100 -14.308900 -3.719800 1.301700 41.723700 -2.796400 1.101100 18.051500 0.000000 -0.000000 0.000000 2.994400 14.845900 -15.913500 16.609300 -26.339900 3.912400 4.309300 20.919600 -14.178300 0.000000 0.000000 0.000000 -7.125000 0.000000 0.000000 -20.893400 43.167700 -0.991300 0.000000 -0.000000 0.000000 -4.673100 9.543000 18.102400 -13.372200 -21.830200 -2.590100 -9.049300 18.636900 7.362700 0.000000 0.000000 0.000000 7.125000 0.000000 -0.000000 14.987700 37.050200 3.014400
0.512356 15.762085 -4.933718 -0.241681 -5.644360 10.380443 0.000000 0.000000 0.000000 -20.530704 -14.611873 -8.890388 1.278729 7.166277 20.209032 0.744715 7.425999 -20.645573 0.038643 1.268936 3.489080 0.000000 0.000000 0.000000 21.181078 12.032707 -11.223876 -1.768490 -8.366276 23.832123 -0.883490 -9.026419 -23.210535 -0.072695 -1.739594 4.786550 0.963231 -0.691552 -8.205220 0.039300 -0.990210 -8.002579 -0.544977 -0.552215 -3.725969 6.972339 1.391580 -14.452115 -3.623531 1.140260 41.432216 -2.752738 1.022533 17.899793 0.000000 0.000000 0.000000 3.153174 14.800497 -15.917576 16.601973 -26.330017 3.909106 4.268748 21.025301 -14.187721 0.000000 0.000000 0.000000 -7.125000 0.000000 0.000000 -20.931609 43.172135 -0.990866 0.000000 0.000000 0.000000 -4.642240 9.504244 17.978092 -13.344593 -21.790108 -2.579853 -9.221386 18.765952 7.232938 0.000000 0.000000 0.000000 7.125000 0.000000 0.000000 14.818228 36.934214 3.021761
0.529569 15.765081 -4.954898 -0.241211 -5.867858 10.420824 0.000000 0.000000 0.000000 -20.579813 -14.576871 -8.995724 1.273081 7.151052 20.163560 0.730439 7.560556 -20.614726 0.040476 1.298884 3.571462 0.000000 0.000000 0.000000 21.072415 12.193434 -11.361645 -1.769548 -8.368511 23.839049 -0.869402 -9.001044 -23.067325 -0.068144 -1.684318 4.634028 0.928176 -0.697050 -7.988328 0.000424 -0.995206 -7.826171 -0.564351 -0.553093 -3.658990 7.018640 1.413542 -14.509977 -3.642553 1.157516 41.355176 -2.765014 1.030471 17.872418 0.000000 0.000000 0.000000 3.218380 14.678631 -15.958722 16.499115 -26.192720 3.863702 4.391787 21.311467 -14.097055 0.000000 0.000000 0.000000 -7.125000 0.000000 0.000000 -20.793965 43.100301 -1.022469 0.000000 0.000000 0.000000 -4.496315 9.534762 17.775637 -13.320682 -21.755316 -2.570929 -9.183863 18.926081 7.254583 0.000000 0.000000 0.000000 7.125000 0.000000 0.000000 14.853640 36.953141 3.022298
0.556323 15.769356 -4.967141 -0.254537 -6.026105 10.666242 0.000000 0.000000 0.000000 -20.596858 -14.636852 -9.350079 1.277014 7.161698 20.195252 0.724415 7.622645 -20.606057 0.046314 1.388391 3.818103 0.000000 0.000000 0.000000 20.868354 12.295904 -11.696941 -1.761573 -8.350760 23.784694 -0.876112 -8.822054 -22.978270 -0.062402 -1.611435 4.432987 0.881504 -0.744591 -7.971535 0.023215 -1.056365 -7.813786 -0.517345 -0.581190 -3.654805 6.977450 1.434262 -14.283480 -3.611261 1.203771 41.409319 -2.735136 1.046647 17.847027 0.000000 0.000000 0.000000 2.957006 14.748125 -15.815998 16.440392 -26.114117 3.837725 4.601793 21.567127 -13.918070 0.000000 0.000000 0.000000 -7.125000 0.000000 0.000000 -20.551147 42.954539 -1.086974 0.000000 0.000000 0.000000 -4.338175 9.846844 17.469431 -13.309978 -21.739725 -2.566960 -9.150325 19.018186 7.358303 0.000000 0.000000 0.000000 7.125000 0.000000 0.000000 14.903475 37.052289 2.995728
0.595929 15.773271 -4.977374 -0.324451 -6.311111 10.964005 0.000000 0.000000 0.000000 -20.614919 -14.638703 -9.739376 1.280071 7.170023 20.219997 0.719548 7.750279 -20.662499 0.052874 1.483596 4.080604 0.000000 0.000000 0.000000 20.661369 12.493569 -12.054711 -1.754658 -8.335136 23.736626 -0.881136 -8.656504 -22.887720 -0.053616 -1.494188 4.109757 0.884336 -0.678410 -7.953833 0.009480 -0.969345 -7.727197 -0.529720 -0.537471 -3.571845 6.979117 1.378384 -14.430687 -3.506414 1.052423 41.407598 -2.715797 0.998394 17.872472 0.000000 0.000000 0.000000 2.692574 14.684787 -16.065288 16.596592 -26.322943 3.906761 4.592810 21.192245 -13.997181 0.000000 0.000000 0.000000 -7.125000 0.000000 0.000000 -20.586181 43.027781 -1.049910 0.000000 0.000000 0.000000 -4.046191 10.055473 16.876250 -13.269520 -21.680927 -2.552039 -9.219454 18.945201 7.311863 0.000000 0.000000 0.000000 7.125000 0.000000 0.000000 14.836605 37.011250 2.996903
